HIERARCHY
ROOT RootJoint
{
    OFFSET   0.000000   0.000000   0.000000
    CHANNELS 6 Xposition Yposition Zposition Xrotation Yrotation Zrotation
    JOINT pelvis_lowerback
    {
        OFFSET   0.000000   0.093605   0.000000
        CHANNELS 3 Xrotation Yrotation Zrotation
        JOINT lowerback_torso
        {
            OFFSET   0.000000   0.100000   0.000000
            CHANNELS 3 Xrotation Yrotation Zrotation
            JOINT torso_head
            {
                OFFSET   0.000000   0.282350   0.000000
                CHANNELS 3 Xrotation Yrotation Zrotation
                End Site
                {
                    OFFSET   0.000000   0.192650   0.000000
                }
            }
            JOINT rTorso_Clavicle
            {
                OFFSET  -0.001000   0.157500   0.000000
                CHANNELS 3 Xrotation Yrotation Zrotation
                JOINT rShoulder
                {
                    OFFSET  -0.117647   0.000000   0.000000
                    CHANNELS 3 Xrotation Yrotation Zrotation
                    JOINT rElbow
                    {
                        OFFSET  -0.245000   0.000000   0.000000
                        CHANNELS 3 Xrotation Yrotation Zrotation
                        JOINT rWrist
                        {
                            OFFSET  -0.240000   0.000000   0.000000
                            CHANNELS 3 Xrotation Yrotation Zrotation
                            End Site
                            {
                                OFFSET  -0.116353  -0.002500   0.000000
                            }
                        }
                    }
                }
            }
            JOINT lTorso_Clavicle
            {
                OFFSET   0.001000   0.157500   0.000000
                CHANNELS 3 Xrotation Yrotation Zrotation
                JOINT lShoulder
                {
                    OFFSET   0.117647   0.000000   0.000000
                    CHANNELS 3 Xrotation Yrotation Zrotation
                    JOINT lElbow
                    {
                        OFFSET   0.245000   0.000000   0.000000
                        CHANNELS 3 Xrotation Yrotation Zrotation
                        JOINT lWrist
                        {
                            OFFSET   0.240000   0.000000   0.000000
                            CHANNELS 3 Xrotation Yrotation Zrotation
                            End Site
                            {
                                OFFSET   0.116353  -0.002500   0.000000
                            }
                        }
                    }
                }
            }
        }
    }
    JOINT rHip
    {
        OFFSET  -0.100000  -0.051395   0.000000
        CHANNELS 3 Xrotation Yrotation Zrotation
        JOINT rKnee
        {
            OFFSET   0.000000  -0.410000   0.000000
            CHANNELS 3 Xrotation Yrotation Zrotation
            JOINT rAnkle
            {
                OFFSET   0.000000  -0.390000   0.000000
                CHANNELS 3 Xrotation Yrotation Zrotation
                JOINT rToeJoint
                {
                    OFFSET   0.000000  -0.050000   0.130000
                    CHANNELS 3 Xrotation Yrotation Zrotation
                    End Site
                    {
                        OFFSET  -0.010000   0.002000   0.060000
                    }
                }
            }
        }
    }
    JOINT lHip
    {
        OFFSET   0.100000  -0.051395   0.000000
        CHANNELS 3 Xrotation Yrotation Zrotation
        JOINT lKnee
        {
            OFFSET   0.000000  -0.410000   0.000000
            CHANNELS 3 Xrotation Yrotation Zrotation
            JOINT lAnkle
            {
                OFFSET   0.000000  -0.390000   0.000000
                CHANNELS 3 Xrotation Yrotation Zrotation
                JOINT lToeJoint
                {
                    OFFSET   0.000000  -0.050000   0.130000
                    CHANNELS 3 Xrotation Yrotation Zrotation
                    End Site
                    {
                        OFFSET   0.010000   0.002000   0.060000
                    }
                }
            }
        }
    }
}
MOTION
Frames: 5
Frame Time:   0.008333
 -2.756059   0.896954   6.458629  -0.777704   1.197120  -9.889251   4.176284   0.606389   3.174792   8.458604  -0.410133   6.868129   6.585022  -1.441930   0.275000   4.100870   0.201118  -2.001483   5.272430  10.726842  32.198368  -0.072959  25.370349  -0.051527   0.602785   1.515786  -2.030378  -5.027606   3.278770  15.434551 -14.890928  -0.336068 -15.601717  -0.057684 -26.333476  -0.026938  -4.515376   0.060369   0.266908 -27.405683  10.940802 -16.204105  86.218425  -0.003672  -0.025222   6.795223  -0.860522   2.770618  -3.437393   0.003779   0.000961 -17.572751  -0.665259   1.388927  33.868572  -0.010560  -0.049536 -17.272024   8.032266  13.985336   0.953220  -0.000010   0.001998
 -2.755899   0.902870   6.459687   0.160038   2.417867 -10.157151   4.159197  -0.459806   3.495765   8.443811  -1.300694   7.179558   6.729084  -0.797548  -0.155602   4.439074  -1.138896  -2.461290   6.711793   9.046612  32.829612  -0.080787  23.202432  -0.040250   0.599680   1.154579  -1.826824  -5.502460   2.649316  16.355770 -16.556211  -1.864376 -14.908817  -0.070259 -27.710932  -0.036055  -4.375753   0.153684   0.153830 -29.799792  10.811742 -14.856052  84.524554  -0.010554  -0.042661   6.261987  -1.011145   2.867926  -3.342805   0.003432   0.001991 -17.089239  -1.388944   1.546146  31.039679  -0.007784  -0.057169 -15.314578   7.877568  13.479226   1.310460   0.001079   0.002950
 -2.755865   0.908408   6.460794   1.096626   3.472229 -10.423993   4.156685  -1.463080   3.766770   8.410587  -2.166799   7.480471   6.851221  -0.179415  -0.587530   4.785751  -2.459051  -2.902005   8.111337   7.443425  33.471271  -0.084538  21.152785  -0.032353   0.609866   0.692167  -1.475829  -5.959075   2.009352  17.345446 -18.127902  -3.373837 -14.224115  -0.079420 -29.036209  -0.042425  -4.255210   0.036023   0.170879 -32.195362  10.701972 -13.524797  82.531977  -0.014487  -0.060511   5.743059  -1.152110   2.956424  -3.294745   0.002901   0.002213 -16.568295  -2.217768   1.656589  28.216776  -0.003347  -0.056164 -13.714617   7.517143  12.962002   1.022775  -0.000155   0.002311
 -2.756032   0.913315   6.462025   1.998555   4.453403 -10.714160   4.180136  -2.471054   4.023299   8.391761  -3.043024   7.785643   6.968726   0.397949  -1.000740   5.115819  -3.744595  -3.332064   9.450163   5.929430  34.097428  -0.084719  19.229915  -0.027642   0.623189   0.188057  -1.106540  -6.386583   1.370155  18.369242 -19.598696  -4.839397 -13.559579  -0.084954 -30.286810  -0.046489  -4.135094  -0.178348   0.296208 -34.532599  10.546089 -12.227905  80.524248  -0.015118  -0.074688   5.251040  -1.282787   3.039209  -3.265635   0.002387   0.002142 -16.030306  -2.962561   1.806347  25.455847   0.000032  -0.054994 -12.180616   7.243566  12.496511   0.782403  -0.000897   0.001604
 -2.756358   0.917517   6.463427   2.848488   5.377909 -11.009387   4.229035  -3.482501   4.267702   8.394606  -3.929155   8.089093   7.084610   0.935343  -1.391384   5.426481  -4.989860  -3.753441  10.727379   4.501866  34.700949  -0.082551  17.427649  -0.025145   0.637142  -0.332731  -0.766804  -6.782804   0.733330  19.388035 -20.973051  -6.256171 -12.935350  -0.087303 -31.465115  -0.049008  -4.015245  -0.450381   0.491504 -36.781702  10.348257 -10.992718  78.598013  -0.013316  -0.084299   4.788694  -1.403732   3.116933  -3.248330   0.001936   0.001926 -15.487015  -3.623413   1.979585  22.825240   0.002553  -0.053761 -10.746181   7.023148  12.071799   0.580301  -0.001310   0.000950
